<svg width="23" height="24" viewBox="0 0 23 24" fill="none" xmlns="http://www.w3.org/2000/svg">
<g clip-path="url(#clip0_80_1029)">
<path d="M2.24445 13.7205L2.2995 3.96848H1.19858V16.3769C2.71145 15.9862 4.22965 15.7376 5.75851 15.727C7.17017 15.7181 8.58183 15.9152 9.99704 16.3946C9.11808 15.6826 8.13791 15.1588 7.09204 14.8178C5.77449 14.3881 4.3504 14.2461 2.8908 14.3704C2.56052 14.397 2.27286 14.152 2.24445 13.8235C2.2409 13.7879 2.2409 13.7542 2.24445 13.7205ZM18.3995 3.45886C18.396 3.43045 18.3924 3.40026 18.3924 3.3683C18.3924 3.33811 18.3942 3.30793 18.3995 3.27774V1.30319C17.0145 1.17179 15.5869 1.3245 14.3403 1.79683C13.1755 2.23897 12.1705 2.96522 11.517 4.00577V15.2529C12.5327 14.5746 13.5715 14.017 14.6387 13.637C15.855 13.2038 17.1051 12.9978 18.3995 13.1008V3.45886ZM19.5981 2.7699H21.2211C21.5513 2.7699 21.8195 3.03803 21.8195 3.3683V17.1582C21.8195 17.4885 21.5513 17.7566 21.2211 17.7566C21.1536 17.7566 21.0879 17.7459 21.0275 17.7246C19.3584 17.247 17.6999 16.9291 16.0574 16.9185C14.4558 16.9078 12.8559 17.1901 11.2489 17.8986C11.1495 17.9643 11.0305 17.9998 10.908 17.9981C10.7872 17.9998 10.6682 17.9643 10.567 17.8986C8.96182 17.1884 7.36017 16.9078 5.75851 16.9185C4.11601 16.9291 2.45931 17.247 0.788399 17.7246C0.728026 17.7459 0.662326 17.7566 0.594851 17.7566C0.268127 17.7584 0 17.4902 0 17.16V3.3683C0 3.03803 0.268127 2.7699 0.598402 2.7699H2.30482L2.31548 0.770491C2.31725 0.482832 2.51968 0.244891 2.79136 0.18807C4.36638 -0.14043 6.28056 -0.0587489 7.95857 0.584045C9.11808 1.02796 10.1711 1.73646 10.9399 2.75924C11.7159 1.80571 12.7529 1.1203 13.9195 0.678155C15.5141 0.0726509 17.3537 -0.0729542 19.0849 0.180967C19.3833 0.223583 19.5963 0.481056 19.5963 0.772266V2.7699H19.5981ZM12.0977 16.3041C13.4205 15.8886 14.7416 15.7181 16.0627 15.7252C17.5916 15.7341 19.1098 15.9845 20.6227 16.3751V3.96848H19.5981V13.7737C19.5981 14.104 19.33 14.3721 18.9997 14.3721C18.9518 14.3721 18.9056 14.3668 18.8612 14.3562C17.5508 14.1502 16.2811 14.3207 15.0417 14.7628C14.0438 15.1197 13.0636 15.6524 12.0977 16.3041ZM10.3202 15.1375V3.98801C9.6934 2.88177 8.67949 2.14131 7.53418 1.70272C6.23616 1.20553 4.77834 1.09366 3.50695 1.27478L3.43948 13.1381C4.82628 13.0883 6.18289 13.2641 7.4596 13.6814C8.47529 14.0117 9.4377 14.4964 10.3202 15.1375Z" fill="#313638"/>
</g>
<defs>
<clipPath id="clip0_80_1029">
<rect width="21.8195" height="18" fill="white"/>
</clipPath>
</defs>
</svg>
