<svg width="19" height="20" viewBox="0 0 19 20" fill="none" xmlns="http://www.w3.org/2000/svg">
<path d="M7.55712 2.04981C9.47484 2.04981 12.4814 2.06607 14.3992 2.06607C14.6104 2.06607 14.8217 2.08232 15.033 2.13107C15.228 2.16358 15.423 2.22858 15.618 2.30984C15.7968 2.3911 15.9756 2.48861 16.1544 2.60238C16.3169 2.71614 16.4794 2.84615 16.6257 2.99242C16.7719 3.13869 16.9019 3.30121 17.0157 3.46373C17.1295 3.62624 17.227 3.80502 17.3082 4.00004C17.3895 4.17881 17.4383 4.37383 17.487 4.5851C17.5195 4.79638 17.552 4.9914 17.552 5.21893V11.5734C17.552 11.7847 17.5358 11.996 17.487 12.2072C17.4545 12.4185 17.3895 12.5973 17.3082 12.7923C17.227 12.9711 17.1295 13.1498 17.0157 13.3286C16.9019 13.4911 16.7719 13.6536 16.6257 13.7999C16.4631 13.9462 16.3006 14.0924 16.1381 14.19C15.9756 14.3037 15.7968 14.4012 15.618 14.4825C15.4393 14.5638 15.2442 14.6125 15.0492 14.6613C14.8542 14.6938 14.6429 14.7263 14.4154 14.7263H11.9939C11.9126 14.7263 11.8476 14.7425 11.7826 14.775C11.7176 14.8075 11.6688 14.8563 11.6201 14.905C11.4251 15.1488 11.23 15.3926 11.0188 15.6364C10.8075 15.8639 10.5962 16.0914 10.3524 16.3027C10.1249 16.514 9.88113 16.709 9.63736 16.904C9.39358 17.099 9.13355 17.2778 8.87352 17.4566C8.62974 17.6191 8.35346 17.7816 8.07718 17.9279C7.8009 18.0742 7.52461 18.2042 7.24833 18.3342C7.21583 18.3504 7.18332 18.3504 7.15082 18.3342C7.10207 18.3017 7.08581 18.2367 7.10207 18.1879C7.15082 18.0904 7.19958 18.0091 7.24833 17.9116C7.29709 17.8304 7.34584 17.7329 7.37835 17.6354C7.45961 17.4566 7.54087 17.2778 7.60587 17.0828C7.68713 16.8878 7.75214 16.6927 7.81715 16.4977C7.88215 16.319 7.94716 16.1239 7.99592 15.9289C8.06093 15.7339 8.10968 15.5389 8.15844 15.3438C8.17469 15.2788 8.19094 15.2301 8.19094 15.1651C8.19094 15.0351 8.14218 14.9213 8.04467 14.8238C7.96341 14.7425 7.8334 14.6775 7.70338 14.6775H4.94057C4.72929 14.6775 4.51802 14.6613 4.30674 14.6125C4.11172 14.58 3.9167 14.515 3.73793 14.45C3.55916 14.385 3.38039 14.2875 3.21787 14.1737C3.0391 14.0599 2.87658 13.9137 2.71406 13.7674C2.56779 13.6211 2.43778 13.4586 2.32402 13.2961C2.21025 13.1336 2.11274 12.9548 2.03148 12.7598C1.95022 12.581 1.90147 12.386 1.85271 12.1747C1.82021 11.9635 1.78771 11.7684 1.78771 11.5409V7.52669C1.78771 6.87662 0.942608 6.87662 0.812593 7.33167V11.5409C0.812593 11.8172 0.845097 12.0935 0.893853 12.3535C0.942608 12.6135 1.02387 12.8736 1.12138 13.1173C1.21889 13.3611 1.3489 13.5886 1.49517 13.8162C1.64144 14.0437 1.82021 14.255 2.01523 14.45C2.21025 14.645 2.42153 14.8238 2.64905 14.97C2.86033 15.1163 3.10411 15.2463 3.34788 15.3438C3.59166 15.4414 3.85169 15.5226 4.11172 15.5714C4.37175 15.6201 4.64803 15.6526 4.92431 15.6526H6.92329C6.93955 15.6526 6.9558 15.6526 6.9558 15.6526C7.02081 15.6689 7.05331 15.7339 7.02081 15.7989C6.9883 15.9289 6.93955 16.0427 6.90704 16.1727C6.84204 16.3515 6.77703 16.5302 6.71202 16.709C6.64701 16.8715 6.56575 17.0503 6.50075 17.2128C6.50075 17.2291 6.50075 17.2291 6.50075 17.2453C6.43574 17.4078 6.35448 17.5703 6.25697 17.7329C6.15946 17.8954 6.06195 18.0417 5.93193 18.2042C5.81817 18.3504 5.6719 18.513 5.52563 18.6755C5.37937 18.838 5.21685 18.9843 5.03808 19.1468C4.94057 19.2443 4.89181 19.3581 4.87556 19.4881C4.87556 19.6181 4.90806 19.7318 5.00557 19.8294C5.07058 19.8944 5.15184 19.9431 5.2331 19.9756C5.31436 20.0081 5.41187 20.0081 5.49313 19.9756C5.85067 19.8781 6.20821 19.7643 6.56575 19.6506C6.90704 19.5368 7.24833 19.4068 7.57337 19.2605C7.89841 19.1143 8.22344 18.968 8.53223 18.8055C8.84101 18.643 9.13355 18.4642 9.42608 18.2692C9.71862 18.0904 9.9949 17.8791 10.2549 17.6679C10.5312 17.4566 10.775 17.2291 11.035 17.0015C11.2463 16.8065 11.4413 16.5952 11.6363 16.384C11.8314 16.1727 12.0264 15.9452 12.2052 15.7176C12.2214 15.6851 12.2539 15.6689 12.3027 15.6689H14.4154C14.6917 15.6689 14.968 15.6364 15.228 15.5876C15.488 15.5389 15.7481 15.4576 15.9918 15.3601C16.2356 15.2626 16.4631 15.1326 16.6907 14.9863C16.9182 14.84 17.1295 14.6613 17.3245 14.4662C17.5195 14.2712 17.6983 14.0599 17.8445 13.8324C17.9908 13.6049 18.1208 13.3774 18.2183 13.1336C18.3159 12.8898 18.3971 12.6298 18.4459 12.3697C18.4946 12.1097 18.5271 11.8334 18.5271 11.5572V5.18642C18.5271 4.91014 18.4946 4.63386 18.4459 4.37383C18.3971 4.1138 18.3159 3.85377 18.2183 3.60999C18.1208 3.36621 17.9908 3.13869 17.8445 2.91116C17.6983 2.68364 17.5195 2.47236 17.3245 2.27734C17.1295 2.08232 16.9182 1.90355 16.6907 1.75728C16.4794 1.61101 16.2356 1.481 15.9918 1.38349C15.7481 1.28598 15.488 1.20472 15.228 1.15596C14.968 1.10721 14.6917 1.0747 14.4154 1.0747C12.4164 1.0747 9.34482 1.05845 7.34584 1.05845C6.85829 1.20472 6.82578 2.04981 7.55712 2.04981ZM3.9492 6.37281C4.25799 6.47032 4.56677 6.56783 4.87556 6.66534C5.18434 6.76286 5.49313 6.87662 5.80192 6.97413C6.53325 7.20166 6.93955 7.34792 7.02081 7.36417C7.10207 7.38043 7.05331 7.05539 6.87454 6.34031L6.28947 4.1138L6.24072 4.06504L3.9492 6.37281ZM5.39562 3.2037L2.42153 0.0833378C2.32402 0.00207846 2.22651 -0.0304253 2.11274 0.0345822L0.0650075 2.01731C-0.0162519 2.11482 -0.0325037 2.22858 0.0812593 2.34235L3.10411 5.51146L5.39562 3.2037ZM6.84203 11.8497C6.58201 11.8497 6.38698 11.6547 6.37073 11.3946C6.37073 11.1346 6.56575 10.9396 6.82578 10.9233L10.8887 10.8583L11.8151 10.7933C12.0751 10.7771 12.2864 10.9721 12.3027 11.2159C12.3189 11.4759 12.1239 11.6872 11.8801 11.7034L10.9538 11.7684C10.9538 11.7684 7.24833 11.8334 6.84203 11.8497ZM8.28845 8.95686C8.02842 8.95686 7.8334 8.74558 7.8334 8.5018C7.8334 8.24177 8.04467 8.04675 8.28845 8.04675H14.0741C14.3341 8.04675 14.5292 8.25803 14.5292 8.5018C14.5292 8.76184 14.3179 8.95686 14.0741 8.95686H8.28845ZM10.3362 6.21029C10.0762 6.21029 9.88113 5.99902 9.88113 5.75524C9.88113 5.51146 10.0924 5.30019 10.3362 5.30019H14.0741C14.3341 5.30019 14.5292 5.51146 14.5292 5.75524C14.5292 6.01527 14.3179 6.21029 14.0741 6.21029H10.3362Z" fill="#313638"/>
</svg>
